<?xml version="1.0" encoding="utf-8"?>
<svg version="1.1" width="32" height="32" viewBox="0 0 32 32" xmlns="http://www.w3.org/2000/svg" xmlns:bx="https://boxy-svg.com">
  <defs>
    <filter id="point-light-filter-0" primitiveUnits="objectBoundingBox" x="-500%" y="-500%" width="1000%" height="1000%" bx:preset="point-light 1 0.5 0.5 0.5 70 0.01 0.01 0 #ffffff">
      <feSpecularLighting result="specular-lighting" lighting-color="#ffffff" specularConstant="0.01" specularExponent="70">
        <fePointLight x="0.5" y="0.5" z="0.5"/>
      </feSpecularLighting>
      <feDiffuseLighting result="diffuse-lighting" lighting-color="#ffffff" diffuseConstant="0.01">
        <fePointLight x="0.5" y="0.5" z="0.5"/>
      </feDiffuseLighting>
      <feMerge result="lighting">
        <feMergeNode in="diffuse-lighting"/>
        <feMergeNode in="specular-lighting"/>
      </feMerge>
      <feComposite in="SourceGraphic" in2="lighting" operator="arithmetic" k1="1" k2="0" k3="0" k4="0"/>
    </filter>
  </defs>
  <title>3</title>
  <path fill="#829984" d="M 3.151 2.763 C 2.669 4.067 2.402 5.253 2.253 6.745 C 2.189 7.374 2.208 8.763 2.284 9.111 C 2.301 9.186 2.3 9.187 2.133 9.379 C 0.418 11.343 -0.19 13.498 0.09 16.615 C 0.605 22.352 3.86 25.548 9.786 26.135 C 10.241 26.18 17.641 26.187 18.143 26.144 C 24.01 25.63 27.359 22.463 27.935 16.883 C 28.269 13.646 27.677 11.41 25.962 9.43 L 25.757 9.194 L 25.792 8.932 C 25.836 8.604 25.843 7.374 25.803 6.888 C 25.682 5.421 25.328 3.841 24.844 2.604 L 24.788 2.46 L 24.713 2.467 C 23.358 2.58 20.27 3.971 18.126 5.434 L 17.861 5.615 L 17.657 5.567 C 15.863 5.147 11.99 5.156 10.307 5.586 L 10.195 5.615 L 9.761 5.329 C 7.577 3.887 5.268 2.834 3.577 2.509 C 3.462 2.487 3.344 2.464 3.316 2.459 C 3.267 2.449 3.264 2.456 3.151 2.762 L 3.151 2.763 Z M 4.785 4.133 C 6.301 4.68 7.868 5.514 9.56 6.672 C 9.772 6.818 9.962 6.937 9.982 6.937 C 10.002 6.937 10.147 6.902 10.305 6.859 C 12.138 6.364 15.848 6.354 17.673 6.839 C 17.869 6.891 18.042 6.937 18.059 6.94 C 18.075 6.944 18.312 6.795 18.586 6.609 C 20.42 5.362 22.115 4.495 23.723 3.979 L 23.989 3.893 L 24.023 4.002 C 24.551 5.692 24.75 7.837 24.504 9.172 L 24.433 9.558 L 24.489 9.625 C 24.52 9.662 24.681 9.841 24.846 10.025 C 26.487 11.841 27.001 13.634 26.729 16.601 C 26.58 18.235 26.154 19.696 25.488 20.852 C 25.374 21.05 25.041 21.561 25.025 21.561 C 25.021 21.561 25.051 21.46 25.093 21.336 C 25.498 20.137 25.608 18.445 25.36 17.268 C 24.966 15.407 23.643 13.785 22 13.151 C 21.202 12.843 20.378 12.718 19.14 12.718 C 18.426 12.718 18.218 12.727 16.955 12.813 C 15.56 12.908 15.39 12.916 14.719 12.938 C 13.738 12.969 12.955 12.943 11.244 12.823 C 8.295 12.615 7.089 12.705 5.871 13.226 C 4.395 13.857 3.161 15.37 2.738 17.067 C 2.424 18.323 2.52 20.013 2.985 21.39 C 3.061 21.616 3.05 21.611 2.865 21.331 C 1.849 19.802 1.355 18.036 1.267 15.623 C 1.179 13.195 1.737 11.634 3.309 9.912 C 3.529 9.67 3.626 9.55 3.619 9.529 C 3.321 8.545 3.402 6.522 3.809 4.818 C 3.874 4.545 4.042 3.936 4.059 3.908 C 4.07 3.889 4.356 3.978 4.787 4.134 L 4.785 4.133 Z M 9.997 13.972 C 10.188 13.983 10.778 14.021 11.31 14.057 C 13.778 14.225 14.356 14.223 17.022 14.039 C 18.219 13.957 18.456 13.946 19.121 13.946 C 21.254 13.947 22.354 14.403 23.324 15.692 C 24.219 16.88 24.483 18.407 24.112 20.244 C 23.465 23.447 20.952 24.793 15.327 24.953 C 7.079 25.186 3.974 23.543 3.788 18.849 C 3.733 17.492 4.139 16.326 5 15.361 C 6.062 14.173 7.329 13.821 9.998 13.972 L 9.997 13.972 Z M 8.969 16.327 C 7.472 16.602 6.716 18.886 7.557 20.597 C 8.612 22.744 11.044 21.815 11.169 19.217 C 11.249 17.55 10.153 16.11 8.969 16.327 L 8.969 16.327 Z M 18.594 16.338 C 16.853 16.696 16.263 19.765 17.654 21.223 C 18.945 22.575 20.774 21.39 20.831 19.165 C 20.875 17.442 19.805 16.09 18.594 16.338 L 18.594 16.338 Z M 9.308 17.571 C 10.11 17.935 10.145 20.01 9.357 20.509 C 8.926 20.783 8.394 19.869 8.441 18.936 C 8.484 18.112 8.934 17.402 9.308 17.571 Z M 19.032 17.602 C 19.782 18.083 19.796 20.003 19.053 20.495 C 18.527 20.843 17.95 19.628 18.151 18.596 C 18.294 17.862 18.709 17.394 19.032 17.603 L 19.032 17.602 Z" style="filter: url(#point-light-filter-0);"/>
</svg>